<svg width="340" height="115" viewBox="0 0 340 115" fill="none" xmlns="http://www.w3.org/2000/svg">
<path d="M0.000159816 114.173V1.63256C0.00275058 1.4318 0.0836536 1.24 0.225623 1.09803C0.367593 0.956056 0.559401 0.875153 0.76016 0.872562H31.1202C31.245 0.872157 31.3678 0.904206 31.4764 0.965565C31.5851 1.02692 31.676 1.11549 31.7402 1.22256L68.6402 61.4726L104.57 1.22256C104.641 1.12137 104.733 1.03736 104.84 0.976763C104.948 0.916167 105.067 0.88055 105.19 0.872562H135.42C135.62 0.875192 135.811 0.956422 135.951 1.09867C136.091 1.24091 136.17 1.43272 136.17 1.63256V114.243C136.168 114.441 136.088 114.63 135.948 114.77C135.808 114.91 135.618 114.99 135.42 114.993H102.3C102.102 114.99 101.913 114.91 101.773 114.77C101.633 114.63 101.553 114.441 101.55 114.243L101.2 63.4626L77.0002 104.483C76.9216 104.592 76.8179 104.681 76.6979 104.742C76.5778 104.803 76.4448 104.834 76.3102 104.833L59.8902 104.623C59.7668 104.621 59.6457 104.59 59.5376 104.53C59.4294 104.471 59.3376 104.386 59.2702 104.283L35.2702 65.1826L35.1302 114.183C35.1275 114.382 35.0463 114.573 34.9041 114.714C34.7618 114.854 34.57 114.933 34.3702 114.933L0.76016 114.863C0.663531 114.874 0.565566 114.865 0.472883 114.835C0.3802 114.805 0.294957 114.756 0.222912 114.691C0.150868 114.625 0.093701 114.545 0.0552728 114.456C0.0168446 114.366 -0.00194963 114.27 0.000159816 114.173Z" fill="white"/>
<path d="M144.62 0.872224H183.24C183.845 0.883146 184.437 1.04652 184.961 1.3472C185.486 1.64788 185.926 2.07613 186.24 2.59222L208.5 40.1722L231 2.52222C231.304 1.99667 231.742 1.5613 232.269 1.26079C232.796 0.960288 233.394 0.805469 234 0.812224H269L227.83 70.6822C226.651 72.9955 226.106 75.5798 226.25 78.1722V114.242C226.248 114.423 226.174 114.596 226.045 114.724C225.916 114.851 225.742 114.922 225.56 114.922H188.25C188.07 114.922 187.897 114.851 187.77 114.723C187.642 114.596 187.57 114.423 187.57 114.242V76.7222C187.57 75.2822 187.57 72.9522 186.81 71.7222L144.62 0.872224Z" fill="white"/>
<path d="M276 58.8624V0.672381H298.74V6.78238C309.05 -1.80762 323.06 -2.07762 331.74 5.06238C340.67 12.4924 339.98 24.6524 339.92 25.9524V58.8624H316.46C316.39 53.1624 316.32 45.1924 316.11 35.5024C315.98 27.3924 315.84 23.2724 312.95 21.4224C310.06 19.5724 305.33 20.3224 302.72 22.7924C300.11 25.2624 300.1 29.0024 300.1 31.1724C300 39.5624 300 48.6224 300 58.7924H276V58.8624Z" fill="white"/>
</svg>
